<?xml version="1.0" encoding="UTF-8"?>
<svg id="Layer_1" data-name="Layer 1" xmlns="http://www.w3.org/2000/svg" version="1.1" xmlns:xlink="http://www.w3.org/1999/xlink" viewBox="0 0 418.9 115">
  <defs>
    <style>
      .cls-1 {
        isolation: isolate;
      }

      .cls-2 {
        fill: none;
      }

      .cls-2, .cls-3 {
        stroke-width: 0px;
      }

      .cls-4 {
        clip-path: url(#clippath);
      }

      .cls-3 {
        fill: #fff;
      }
    </style>
    <clipPath id="clippath">
      <rect class="cls-2" y="0" width="417.7" height="70.2"/>
    </clipPath>
  </defs>
  <g id="Group_2" data-name="Group 2">
    <g class="cls-4">
      <g id="Group_1" data-name="Group 1">
        <path id="Path_1" data-name="Path 1" class="cls-3" d="M65.3,14.1l-5.3,4c-2.8-3.7-6.3-6.6-10.5-8.6s-8.8-3-13.4-2.9c-5.2,0-10.3,1.3-14.8,3.8-4.4,2.4-8,6-10.6,10.3-2.4,4.5-3.7,9.5-3.7,14.6-.2,7.7,2.9,15.1,8.4,20.4,5.6,5.5,12.6,8.2,21.1,8.2s17.2-3.7,23.5-11l5.3,4c-3.3,4.2-7.6,7.6-12.5,9.8-5.2,2.4-10.9,3.6-16.7,3.5-11.7,0-20.9-3.9-27.7-11.7C2.8,51.9,0,44,0,34.7c-.2-9.3,3.5-18.3,10.3-24.7C17.1,3.3,25.7,0,36.1,0c5.8-.1,11.6,1.2,16.9,3.7,4.9,2.4,9.1,5.9,12.3,10.4"/>
        <path id="Path_2" data-name="Path 2" class="cls-3" d="M157.1,0C167.2,0,175.7,3.4,182.5,10.1c6.7,6.5,10.4,15.6,10.2,24.9.2,9.4-3.5,18.4-10.2,24.9-6.5,6.7-15.5,10.4-24.9,10.2-9.4.2-18.5-3.5-25.1-10.2-6.7-6.4-10.4-15.4-10.2-24.6,0-6.3,1.6-12.4,4.7-17.9C133.1,6.7,144.6,0,157.1,0M157.4,6.5c-4.9,0-9.8,1.3-14.1,3.9-4.3,2.5-7.9,6.1-10.4,10.4-2.5,4.5-3.8,9.5-3.7,14.6-.2,7.6,2.8,14.8,8.3,20.1,5.2,5.4,12.4,8.3,19.9,8.2,5,0,10-1.3,14.4-3.8,4.3-2.4,7.9-6,10.3-10.3,2.5-4.4,3.8-9.5,3.7-14.5.1-5-1.2-10-3.7-14.4-2.5-4.3-6.1-7.9-10.4-10.3-4.4-2.6-9.3-3.9-14.3-3.9"/>
        <path id="Path_3" data-name="Path 3" class="cls-3" d="M247.5,1.7h7.3l22.1,51.6L299.4,1.7h7.3l-29.1,66.8h-1.5L247.5,1.7Z"/>
        <path id="Path_4" data-name="Path 4" class="cls-3" d="M387.2,1.7h1.5l29.1,66.8h-7.3l-22.5-51.6-22.1,51.6h-7.3L387.2,1.7Z"/>
        <path id="Path_5" data-name="Path 5" class="cls-3" d="M336.8,35.1c0,2.3-1.9,4.1-4.1,4.1s-4.1-1.9-4.1-4.1,1.9-4.1,4.1-4.1c2.2,0,4.1,1.8,4.1,4.1"/>
        <path id="Path_6" data-name="Path 6" class="cls-3" d="M224.3,35.1c0,2.3-1.9,4.1-4.1,4.1s-4.1-1.9-4.1-4.1,1.9-4.1,4.1-4.1c2.2,0,4.1,1.8,4.1,4.1"/>
        <path id="Path_7" data-name="Path 7" class="cls-3" d="M98,35.1c0,2.3-1.9,4.1-4.1,4.1s-4.1-1.9-4.1-4.1,1.9-4.1,4.1-4.1c2.2,0,4,1.8,4.1,4.1"/>
      </g>
    </g>
  </g>
  <g class="cls-1">
    <path class="cls-3" d="M221.1,101.4h1.2v1.7c.4-.6.9-1.1,1.3-1.3.6-.4,1.3-.6,2-.6s.9.1,1.3.3c.4.2.8.4,1,.7s.5.7.7,1.3c.4-.8.9-1.3,1.5-1.7.6-.4,1.3-.6,2-.6s1.2.2,1.7.5.9.8,1.1,1.4.4,1.5.4,2.7v5.2h-1.3v-5.2c0-1,0-1.7-.2-2.1s-.4-.7-.7-.9-.8-.4-1.3-.4-1.1.2-1.6.5c-.5.4-.9.8-1.1,1.4s-.3,1.6-.3,2.9v3.7h-1.2v-4.9c0-1.2,0-1.9-.2-2.4,0-.4-.4-.7-.8-1-.4-.2-.8-.4-1.3-.4s-1.1.2-1.6.5-.9.8-1.1,1.4-.4,1.5-.4,2.7v4.1h-1.2v-9.5h0Z"/>
    <path class="cls-3" d="M249,101.4h1.2v4.5c0,1.1,0,1.8.2,2.2.2.6.5,1,1,1.4.5.3,1.1.5,1.8.5s1.3-.2,1.7-.5.8-.8,1-1.3c0-.4.2-1.2.2-2.3v-4.5h1.3v4.7c0,1.3-.2,2.3-.5,3s-.8,1.2-1.4,1.6-1.4.6-2.3.6-1.7-.2-2.3-.6c-.6-.4-1.1-.9-1.4-1.6s-.5-1.7-.5-3.1v-4.6h0Z"/>
    <path class="cls-3" d="M271,97.7h1.2v13.3h-1.2v-13.3Z"/>
    <path class="cls-3" d="M287.1,97.9h1.2v3.6h2v1.1h-2v8.5h-1.2v-8.5h-1.7v-1.1h1.7v-3.6Z"/>
    <path class="cls-3" d="M303.7,97.5c.3,0,.5.1.7.3s.3.4.3.7,0,.5-.3.7-.4.3-.7.3-.5-.1-.7-.3-.3-.4-.3-.7,0-.5.3-.7.4-.3.7-.3ZM303.1,101.4h1.2v9.6h-1.2v-9.6Z"/>
    <path class="cls-3" d="M318,101.4h1.2v1.7c.4-.6.9-1.1,1.3-1.3.6-.4,1.3-.6,2-.6s.9.1,1.3.3c.4.2.8.4,1,.7s.5.7.7,1.3c.4-.8.9-1.3,1.5-1.7.6-.4,1.3-.6,2-.6s1.2.2,1.7.5.9.8,1.1,1.4.4,1.5.4,2.7v5.2h-1.3v-5.2c0-1,0-1.7-.2-2.1s-.4-.7-.7-.9-.8-.4-1.3-.4-1.1.2-1.6.5c-.5.4-.9.8-1.1,1.4s-.3,1.6-.3,2.9v3.7h-1.2v-4.9c0-1.2,0-1.9-.2-2.4,0-.4-.4-.7-.8-1-.4-.2-.8-.4-1.3-.4s-1.1.2-1.6.5-.9.8-1.1,1.4-.4,1.5-.4,2.7v4.1h-1.2v-9.5h0Z"/>
    <path class="cls-3" d="M354.1,107.8l1,.5c-.3.7-.7,1.2-1.2,1.6-.4.4-.9.7-1.5.9-.6.2-1.2.3-1.9.3-1.6,0-2.8-.5-3.7-1.5-.9-1-1.3-2.2-1.3-3.5s.4-2.3,1.1-3.2c.9-1.2,2.2-1.8,3.8-1.8s2.9.6,3.9,1.9c.7.9,1,2,1.1,3.3h-8.6c0,1.1.4,2,1.1,2.7s1.5,1.1,2.5,1.1,1-.1,1.4-.3c.5-.2.9-.4,1.2-.7.4-.2.7-.6,1.1-1.3ZM354.1,105.3c-.2-.7-.4-1.2-.7-1.6-.3-.4-.7-.7-1.2-.9-.5-.2-1.1-.4-1.6-.4-.9,0-1.7.3-2.4.9-.5.4-.9,1.1-1.1,2h7Z"/>
    <path class="cls-3" d="M378.5,97.7v13.3h-1.2v-1.6c-.5.6-1.1,1.1-1.7,1.4s-1.3.5-2.1.5c-1.4,0-2.5-.5-3.5-1.5s-1.4-2.2-1.4-3.6.5-2.6,1.5-3.5,2.1-1.5,3.5-1.5,1.5.2,2.1.5,1.2.8,1.7,1.5v-5.4h1.1ZM373.5,102.4c-.7,0-1.3.2-1.9.5s-1,.8-1.4,1.4-.5,1.3-.5,1.9.2,1.3.5,1.9.8,1.1,1.4,1.4,1.2.5,1.9.5,1.3-.2,1.9-.5,1.1-.8,1.4-1.4.5-1.2.5-2-.4-2-1.1-2.8-1.6-.9-2.7-.9Z"/>
    <path class="cls-3" d="M392.8,97.5c.3,0,.5.1.7.3s.3.4.3.7,0,.5-.3.7-.4.3-.7.3-.5-.1-.7-.3-.3-.4-.3-.7,0-.5.3-.7.5-.3.7-.3ZM392.2,101.4h1.2v9.6h-1.2v-9.6Z"/>
    <path class="cls-3" d="M416.7,101.4v9.6h-1.2v-1.6c-.5.6-1.1,1.1-1.7,1.4s-1.3.5-2.1.5c-1.4,0-2.5-.5-3.5-1.5s-1.4-2.2-1.4-3.6.5-2.6,1.5-3.5,2.1-1.5,3.5-1.5,1.5.2,2.1.5,1.2.8,1.7,1.5v-1.8h1.1ZM411.8,102.4c-.7,0-1.3.2-1.9.5s-1,.8-1.4,1.4c-.3.6-.5,1.3-.5,1.9s.2,1.3.5,1.9.8,1.1,1.4,1.4,1.2.5,1.9.5,1.3-.2,1.9-.5,1.1-.8,1.4-1.4.5-1.2.5-2-.4-2-1.1-2.8c-.8-.5-1.7-.9-2.7-.9Z"/>
  </g>
</svg>