<?xml version="1.0" encoding="utf-8"?>
<!-- Generator: Adobe Illustrator 25.3.1, SVG Export Plug-In . SVG Version: 6.00 Build 0)  -->
<svg version="1.1" id="Layer_1" xmlns="http://www.w3.org/2000/svg" xmlns:xlink="http://www.w3.org/1999/xlink" x="0px" y="0px"
	 viewBox="0 0 781.2 55.4" style="enable-background:new 0 0 781.2 55.4;" xml:space="preserve">
<style type="text/css">
	.st0{font-family:'OpenSans-Regular';}
	.st1{font-size:32px;}
</style>
<g>
	<path d="M86.7,43.9c-0.2,0.9-0.4,1.8-0.5,2.7s-0.2,2.1-0.3,3.6c-2.9,1.7-6,3-9.2,3.8c-3.2,0.8-6.6,1.2-10,1.2
		c-4.5,0-8.5-0.7-12-2.1c-3.5-1.4-6.5-3.3-8.9-5.8c-2.5-2.5-4.3-5.4-5.6-8.8c-1.3-3.4-1.9-7.1-1.9-11c0-3.7,0.6-7.2,1.8-10.6
		c1.2-3.3,3-6.2,5.4-8.7c2.4-2.5,5.5-4.4,9.2-5.9c3.7-1.4,8.1-2.2,13.2-2.2c2.3,0,4.5,0.1,6.4,0.4c2,0.3,3.7,0.6,5.3,1
		c1.7,0.5,3.1,1,4.3,1.5c1.2,0.5,2.3,0.9,3.1,1.3c-0.3,0.7-0.5,1.4-0.7,2C86.1,6.9,86,7.5,85.8,8c-0.1,0.5-0.2,1.1-0.3,1.7
		c-0.1,0.6-0.2,1.4-0.3,2.2h-0.8c-0.5-1.1-1.3-2.1-2.4-3.2c-1.1-1-2.4-1.9-3.8-2.7c-1.5-0.8-3.1-1.4-4.9-1.9
		c-1.8-0.5-3.7-0.7-5.6-0.7c-3,0-5.8,0.5-8.3,1.6S54.8,7.7,53,9.7c-1.8,2.1-3.2,4.6-4.1,7.5c-1,3-1.5,6.3-1.5,10
		c0,4,0.6,7.5,1.7,10.6c1.2,3,2.7,5.5,4.6,7.5c1.9,2,4.2,3.5,6.7,4.5s5.2,1.5,7.9,1.5c0.9,0,2-0.1,3.4-0.2c1.4-0.2,2.8-0.5,4.4-1
		c1.6-0.5,3.2-1.3,5-2.4c1.7-1.1,3.3-2.5,4.8-4.3L86.7,43.9z"/>
	<path d="M204.7,0c4,0,7.8,0.6,11.3,1.7c3.5,1.2,6.6,2.9,9.2,5.2c2.6,2.3,4.7,5.1,6.2,8.5s2.3,7.2,2.3,11.5c0,4-0.7,7.8-2.1,11.3
		s-3.4,6.5-6,9.1c-2.6,2.6-5.7,4.6-9.4,6s-7.8,2.2-12.4,2.2c-4.2,0-8.1-0.6-11.7-1.9c-3.6-1.3-6.6-3.1-9.2-5.5
		c-2.6-2.4-4.6-5.3-6-8.7s-2.2-7.2-2.2-11.5c0-4.1,0.7-7.9,2-11.3s3.3-6.3,5.8-8.8c2.6-2.4,5.7-4.4,9.4-5.7C195.7,0.7,200,0,204.7,0
		z M183.7,27.8c0,3.8,0.5,7.2,1.5,10.2s2.4,5.6,4.2,7.7c1.8,2.1,4,3.7,6.5,4.8s5.2,1.7,8.2,1.7s5.8-0.5,8.4-1.6
		c2.6-1.1,4.8-2.7,6.6-4.8c1.9-2.1,3.3-4.7,4.3-7.8s1.5-6.6,1.5-10.6c0-1-0.1-2.1-0.2-3.4c-0.1-1.3-0.3-2.6-0.5-3.9
		c-0.3-1.3-0.6-2.6-1-3.9s-1-2.5-1.7-3.7c-1-1.8-2.3-3.2-3.7-4.4s-3-2.1-4.5-2.8c-1.6-0.7-3.1-1.2-4.7-1.5c-1.6-0.3-3-0.4-4.3-0.4
		c-2.6,0-5.1,0.5-7.6,1.4c-2.4,0.8-4.6,2.2-6.6,4.2c-1.9,2-3.5,4.5-4.7,7.6C184.3,19.7,183.7,23.4,183.7,27.8z"/>
	<path d="M347.7,45.5c1.4-3.3,2.7-6.3,3.8-9.1c1.2-2.7,2.3-5.5,3.3-8.2s2.1-5.5,3.1-8.4c1.1-2.9,2.2-6.1,3.4-9.7
		c0.4-1.3,0.8-2.4,1-3.3c0.3-0.9,0.5-1.8,0.7-2.5s0.4-1.4,0.5-1.9s0.3-1.1,0.5-1.7c0.5,0.2,0.9,0.3,1.4,0.3c0.5,0.1,1.1,0.1,1.8,0.1
		c0.5,0,1.1,0,1.9-0.1s1.4-0.2,1.9-0.4c-0.3,0.4-0.8,1.5-1.6,3.2c-0.8,1.7-1.8,3.9-3,6.5s-2.5,5.6-4,9.1s-3,7-4.6,10.9
		c-1.6,3.8-3.2,7.8-4.8,11.8c-1.6,4-3.1,8.1-4.6,12c-0.2-0.1-0.5-0.2-1-0.3s-1.2-0.2-2.1-0.2c-0.3,0-0.7,0-1.2,0
		c-0.6,0-1.2,0.2-1.8,0.4c-0.3-0.9-0.9-2.6-1.8-5.1s-2-5.4-3.2-8.8c-1.3-3.4-2.6-6.9-4.1-10.8c-1.5-3.8-3-7.6-4.5-11.2
		s-2.9-7-4.3-10.1s-2.5-5.6-3.5-7.5c0.5,0.2,1.2,0.3,2.1,0.3c0.9,0.1,1.7,0.1,2.4,0.1c0.7,0,1.5,0,2.5,0s1.9-0.2,2.8-0.4
		c0.5,1.7,1.1,3.6,1.8,5.8c0.7,2.2,1.6,4.7,2.5,7.3s1.9,5.4,3,8.2s2.1,5.6,3.2,8.4s2.2,5.4,3.2,8C345.7,41,346.7,43.4,347.7,45.5z"
		/>
	<path d="M485.9,9.4c-1.4,3.3-2.7,6.3-3.8,9.1c-1.2,2.7-2.3,5.5-3.3,8.2s-2.1,5.5-3.1,8.4c-1.1,2.9-2.2,6.1-3.4,9.7
		c-0.4,1.3-0.8,2.4-1,3.3c-0.3,0.9-0.5,1.8-0.7,2.5s-0.4,1.4-0.5,1.9s-0.3,1.1-0.5,1.7c-0.5-0.2-0.9-0.3-1.4-0.3
		c-0.5-0.1-1.1-0.1-1.8-0.1c-0.5,0-1.1,0-1.9,0.1s-1.4,0.2-1.9,0.4c0.3-0.4,0.8-1.5,1.6-3.2c0.8-1.7,1.8-3.9,3-6.5s2.5-5.6,4-9.1
		s3-7,4.6-10.9c1.6-3.8,3.2-7.8,4.8-11.8c1.6-4,3.1-8.1,4.6-12c0.2,0.1,0.5,0.2,1,0.3s1.2,0.2,2.1,0.2c0.3,0,0.7,0,1.2,0
		c0.6,0,1.2-0.2,1.8-0.4c0.3,0.9,0.9,2.6,1.8,5.1s2,5.4,3.2,8.8c1.3,3.4,2.6,6.9,4.1,10.8c1.5,3.8,3,7.6,4.5,11.2s2.9,7,4.3,10.1
		c1.4,3.1,2.5,5.6,3.5,7.5c-0.5-0.2-1.2-0.3-2.1-0.3c-0.9-0.1-1.7-0.1-2.4-0.1c-0.7,0-1.5,0-2.5,0s-1.9,0.2-2.8,0.4
		c-0.5-1.7-1.1-3.6-1.8-5.8c-0.7-2.2-1.6-4.7-2.5-7.3s-1.9-5.4-3-8.2s-2.1-5.6-3.2-8.4s-2.2-5.4-3.2-8
		C487.9,13.9,486.9,11.6,485.9,9.4z"/>
	<circle cx="133.5" cy="27.7" r="4.6"/>
	<circle cx="275.1" cy="27.7" r="4.6"/>
	<circle cx="416.8" cy="27.7" r="4.6"/>
</g>
<text transform="matrix(1 0 0 1 552.2482 40.0959)" class="st0 st1">Multimedia Inc.</text>
<rect x="525.2" y="1.2" width="0.9" height="53.2"/>
</svg>
