<?xml version="1.0" encoding="UTF-8"?>
<svg id="Layer_1" xmlns="http://www.w3.org/2000/svg" version="1.1" xmlns:xlink="http://www.w3.org/1999/xlink" viewBox="0 0 554.8 282.7">
  <!-- Generator: Adobe Illustrator 29.1.0, SVG Export Plug-In . SVG Version: 2.1.0 Build 142)  -->
  <defs>
    <style>
      .st0 {
        fill: url(#linear-gradient2);
      }

      .st1 {
        fill: #272626;
      }

      .st2 {
        fill: #575757;
      }

      .st3 {
        fill: #fff;
      }

      .st4 {
        fill: url(#linear-gradient1);
      }

      .st5 {
        fill: #dc7827;
      }

      .st6 {
        fill: url(#linear-gradient4);
      }

      .st7 {
        fill: url(#linear-gradient5);
      }

      .st8 {
        fill: url(#linear-gradient3);
      }

      .st9 {
        fill: #010101;
      }

      .st10 {
        fill: url(#linear-gradient);
      }

      .st11 {
        fill: #2591ce;
      }
    </style>
    <linearGradient id="linear-gradient" x1="1065.7" y1="1063.4" x2="1072.1" y2="1063.4" gradientTransform="translate(1555.3 352.4) rotate(140.1)" gradientUnits="userSpaceOnUse">
      <stop offset=".5" stop-color="#575757" stop-opacity="0"/>
      <stop offset="1" stop-color="#010101" stop-opacity=".5"/>
    </linearGradient>
    <linearGradient id="linear-gradient1" x1="-2639.3" y1="-2806.9" x2="-2633" y2="-2806.9" gradientTransform="translate(3957.9 692.9) rotate(-39.9)" xlink:href="#linear-gradient"/>
    <linearGradient id="linear-gradient2" x1="969.5" y1="982.8" x2="975.8" y2="982.8" xlink:href="#linear-gradient"/>
    <linearGradient id="linear-gradient3" x1="-2575" y1="-2753" x2="-2568.7" y2="-2753" gradientTransform="translate(3957.9 692.9) rotate(-39.9)" xlink:href="#linear-gradient"/>
    <linearGradient id="linear-gradient4" x1="971.6" y1="1204.5" x2="981.9" y2="1204.5" xlink:href="#linear-gradient"/>
    <linearGradient id="linear-gradient5" x1="-2241.1" y1="-2682.1" x2="-2230.8" y2="-2682.1" gradientTransform="translate(3957.9 692.9) rotate(-39.9)" xlink:href="#linear-gradient"/>
  </defs>
  <rect class="st3" x="-1.4" y="-2.1" width="556.9" height="287.6"/>
  <g>
    <path class="st5" d="M91.1,220.2c-1.2-.8-3.7-1.7-6.4-1.7-4.9,0-10.1,3.2-10.1,9.7s5.1,9.7,10.1,9.7,5-.6,6.6-1.5l-.4,3.5c-1.6.8-3.4,1.2-6.7,1.2-6.4,0-13.6-4.4-13.6-13.1s7.3-13.1,13.6-13.1,5.9.8,7.5,1.7l-.7,3.5Z"/>
    <polygon class="st5" points="113.1 215.4 117.4 215.4 106.9 227.9 117.8 241.1 112.8 241.1 102.1 228.2 113.1 215.4"/>
    <polyline class="st5" points="100.8 229 100.8 241.1 96.9 241.1 96.9 215.4 100.8 215.4 100.8 229"/>
    <g>
      <polyline class="st2" points="48.9 223.2 62.6 207.2 70.2 207.2 52.9 228.2"/>
      <polygon class="st11" points="48.8 223.3 48.7 223.4 48.7 233.1 62.1 249.3 70.4 249.3 48.8 223.3"/>
      <polygon class="st10" points="48.8 223.3 52.8 218.6 57 223.2 52.9 228.2 48.8 223.3"/>
    </g>
    <g>
      <polyline class="st2" points="138.9 233.2 125.2 249.3 117.6 249.3 134.8 228.3"/>
      <polygon class="st11" points="138.9 233.2 139.1 233 139.1 223.4 125.6 207.2 117.4 207.2 138.9 233.2"/>
      <polygon class="st4" points="138.9 233.2 134.9 237.8 130.7 233.2 134.8 228.3 138.9 233.2"/>
    </g>
    <g>
      <g>
        <polyline class="st2" points="174.4 223.2 188.2 207.2 195.8 207.2 178.5 228.2"/>
        <polygon class="st11" points="174.4 223.3 174.2 223.4 174.2 233.1 187.7 249.3 195.9 249.3 174.4 223.3"/>
        <polygon class="st0" points="174.4 223.3 178.4 218.6 182.6 223.2 178.5 228.2 174.4 223.3"/>
      </g>
      <g>
        <polyline class="st2" points="222.8 233.2 209 249.3 201.4 249.3 218.7 228.3"/>
        <polygon class="st11" points="222.8 233.2 222.9 233 222.9 223.4 209.5 207.2 201.2 207.2 222.8 233.2"/>
        <polygon class="st8" points="222.8 233.2 218.8 237.8 214.6 233.2 218.7 228.3 222.8 233.2"/>
      </g>
    </g>
    <path class="st5" d="M100.4,51.1c-2-1.3-6.1-2.7-10.3-2.7-8,0-16.4,5.1-16.4,15.7s8.2,15.6,16.4,15.6,8.1-.9,10.6-2.3l-.6,5.7c-2.6,1.4-5.5,2-10.8,2-10.3,0-22-7.2-22-21.1s11.9-21.2,22-21.2,9.6,1.2,12.1,2.7l-1.1,5.6Z"/>
    <polygon class="st5" points="136 43.2 143.1 43.2 126 63.5 143.7 84.8 135.5 84.8 118.2 64 136 43.2"/>
    <polyline class="st5" points="116.3 65.3 116.3 84.8 109.9 84.8 109.9 43.2 116.3 43.2 116.3 65.3"/>
    <path class="st9" d="M168,84.8c-4.7,0-8.5-1.5-10.7-3.1l-.6-4.7c2.9,2.4,6.8,4,11.5,4s8.6-2.9,8.6-7.4-2.5-6.7-8.1-8.7c-7.2-2.6-10.6-6-10.6-11.6s3.8-10.2,11.9-10.2,6.9,1.2,8.6,2.3l-1,3.7c-1.5-1.2-4.7-2.4-7.8-2.4-5,0-7.7,3.1-7.7,6.3s2.3,5.7,7.4,7.6c7.2,2.6,11.5,5.9,11.5,12.7s-5.1,11.4-13.1,11.4Z"/>
    <path class="st9" d="M213.3,85.3c-11.3,0-21.4-8.5-21.4-21.2s10.1-21.1,21.4-21.1,21.4,8.5,21.4,21.1-10.1,21.2-21.4,21.2ZM213.3,46.8c-9,0-17,6.9-17,17.4s8.1,17.4,17,17.4,17-6.9,17-17.4-8.1-17.4-17-17.4Z"/>
    <polyline class="st9" points="251.9 65.7 251.9 84.4 247.6 84.4 247.6 43.6 269.3 43.6 269.3 47.3 251.9 47.3 251.9 65.7"/>
    <polyline class="st9" points="251.9 62 265 62 265 65.7 251.9 65.7"/>
    <path class="st9" d="M295.6,47.3v37.2h-4.3v-37.2h-14v-3.7h32.4v3.7h-14.1Z"/>
    <path class="st9" d="M360.4,85.1h-1.5l-8.1-23.6c-1.3-3.7-2.5-7.4-3.8-11.9h-.1c-1.3,4.5-2.6,8.2-3.8,11.9l-8.1,23.6h-1.5l-14.4-41.6h4.4l7.4,21.6c1.2,3.3,2.6,7.2,3.5,10.8h.1c1-3.7,2.3-7.4,3.5-10.8l7.4-21.6h3.8l7.4,21.6c1.2,3.5,2.4,7.3,3.4,10.8h.1c1-3.5,2.3-7.4,3.5-10.8l7.5-21.7h4l-14.5,41.6Z"/>
    <path class="st9" d="M452.4,84.4l-13.6-18.7h-6.4v18.7h-4.3v-40.9h11.3c6.2,0,12,4.1,12,11.1s-3.4,9.2-8,10.4l14.4,19.4h-5.3ZM438.7,47.3h-6.3v14.7h6.4c4.4,0,8.2-2.7,8.2-7.4s-3.8-7.4-8.3-7.4Z"/>
    <path class="st9" d="M470.5,65.7v15h19.3v3.7h-23.6v-40.9h21.3v3.7h-17v14.7M470.5,62h12.6v3.7h-12.6"/>
    <polygon class="st11" points="396.6 65.5 398.5 69.2 400.4 65.5 396.6 65.5"/>
    <polygon class="st1" points="380.6 84.6 397.6 43.5 399.3 43.5 416.4 84.6 411.9 84.6 398.5 51.1 398.4 51.1 384.9 84.6 380.6 84.6"/>
    <polyline class="st2" points="26.4 55.9 48.6 29.9 60.9 29.9 33 63.9"/>
    <polygon class="st11" points="26.4 55.9 26.1 56.2 26.1 71.8 47.9 98 61.2 98 26.4 55.9"/>
    <polygon class="st6" points="26.4 55.9 32.8 48.4 39.6 55.8 33 63.9 26.4 55.9"/>
    <polyline class="st2" points="528.4 72 506.2 98 493.9 98 521.9 64"/>
    <polygon class="st11" points="528.4 72 528.7 71.7 528.7 56.1 506.9 29.9 493.6 29.9 528.4 72"/>
    <polygon class="st7" points="528.4 72 522 79.5 515.2 72.1 521.9 64 528.4 72"/>
    <g>
      <path class="st9" d="M54.9,161.7l-.7-1.8h-2.7l-.7,1.8h-.9l2.8-6.8h.3l2.8,6.8h-.9ZM53.1,157.4c-.1-.3-.2-.6-.3-.9h0c0,.3-.2.7-.3.9l-.7,1.9h2.1l-.7-1.9Z"/>
      <path class="st9" d="M60,161.8c-.3,0-.7-.4-.8-.8-.2.6-.7.8-1.3.8-.9,0-1.5-.7-1.5-1.4s.8-1.4,1.6-1.5h1.2v-.5c0-.5-.3-.9-1-.9s-1,.1-1.3.4l-.2-.7c.4-.3.9-.4,1.5-.4,1,0,1.8.6,1.8,1.7v2.1c0,.5.3.7.6.8l-.5.5ZM59.1,159.5h-1c-.6.2-1,.5-1,1s.3.7.8.7,1.2-.4,1.2-1.2v-.5Z"/>
      <path class="st9" d="M65.9,161.7h-2.1v-6.7h1.8c.9,0,1.9.6,1.9,1.7s-.3,1-.7,1.2c.7.2,1.3.9,1.3,1.8,0,1.3-1.1,2-2.2,2ZM65.5,155.7h-.8v2h.8c.6,0,1.1-.3,1.1-1s-.5-1-1.1-1ZM65.7,158.4h-1.1v2.6h1.1c.8,0,1.5-.4,1.5-1.3s-.7-1.3-1.5-1.3Z"/>
      <path class="st9" d="M71.2,161.8c-.8,0-1.6-.3-2-.6v-7.1h.8v3.1c.2-.2.8-.5,1.4-.5,1.4,0,2.4,1,2.4,2.5s-1,2.5-2.6,2.5ZM71.3,157.5c-.7,0-1.1.3-1.3.5v2.8c.2.1.7.3,1.1.3,1.2,0,1.9-.8,1.9-1.8,0-1-.7-1.8-1.7-1.8Z"/>
      <path class="st9" d="M82.4,156.1c-.4-.2-1-.5-1.7-.5-1.4,0-2.8,1-2.8,2.7s1.4,2.7,2.8,2.7,1.3-.2,1.8-.4v.8c-.5.2-1,.3-1.8.3-1.8,0-3.5-1.3-3.5-3.4s1.8-3.4,3.5-3.4,1.5.2,2,.4l-.2.7Z"/>
      <path class="st9" d="M87.1,158c-.4-.3-.8-.4-1.3-.4-1,0-1.8.7-1.8,1.8s.8,1.8,1.8,1.8.9,0,1.3-.3v.7c-.4.2-.9.3-1.4.3-1.3,0-2.5-.9-2.5-2.5s1.2-2.5,2.5-2.5,1.1.1,1.5.4l-.2.7Z"/>
      <path class="st9" d="M92.8,161.7h-1.9v-6.7h1.9c2,0,3.7,1.2,3.7,3.4s-1.7,3.4-3.7,3.4ZM92.6,155.7h-.9v5.3h.9c1.6,0,2.9-.9,2.9-2.6s-1.3-2.6-2.9-2.6Z"/>
      <path class="st9" d="M101.1,161.7v-.5h0c-.2.3-.7.6-1.5.6-1.1,0-2.3-.9-2.3-2.5s1-2.5,2.4-2.5,1.2.2,1.4.5v-3.1h.8v7.5h-.8ZM101,158.1c-.2-.2-.6-.5-1.3-.5-.9,0-1.7.7-1.7,1.8s.8,1.8,1.7,1.8,1.1-.3,1.3-.6v-2.4Z"/>
      <path class="st9" d="M105.7,161.7v-6.7h3.6v.7h-2.7v2.2h2.2v.7h-2.2v2.3h3.1v.8h-3.9Z"/>
      <path class="st9" d="M114.5,159l-.4.5h-3.1c0,.8.7,1.7,1.8,1.7s1-.2,1.4-.4v.8c-.4.2-.9.3-1.5.3-1.4,0-2.5-1-2.5-2.5s1.2-2.5,2.3-2.5,2.1.9,2.1,1.8,0,.3,0,.3ZM112.5,157.5c-.7,0-1.4.6-1.5,1.3h2.7s0,0,0-.1c0-.6-.4-1.2-1.2-1.2Z"/>
      <path class="st9" d="M118.9,155.7v2.2h2.4v.7h-2.4v3h-.9v-6.7h3.7v.7h-2.8Z"/>
      <path class="st9" d="M125.5,155c-.2,0-.5-.1-.7-.1-.8,0-1.2.5-1.2,1.4v.7h1.6l-.2.7h-1.4v4.1h-.8v-4.1h-.8v-.7h.8v-.7c0-1.3.8-2,2-2s.7,0,.9.1l-.2.7Z"/>
      <path class="st9" d="M131.9,161.8c-1.8,0-3.7-1.3-3.7-3.5s1.9-3.5,3.6-3.5,1.6.2,2.1.5l-.2.8c-.5-.3-1.2-.5-1.9-.5-1.4,0-2.8,1-2.8,2.7s1.4,2.7,2.8,2.7,1.2-.2,1.6-.4v-1.6h-1.7v-.7h2.5v2.7c-.6.5-1.4.7-2.5.7Z"/>
      <path class="st9" d="M137.4,164.2c-1.3,0-2.2-.7-2.2-1.7s.6-1.3,1.1-1.4l-.5-.5c0-.4.3-.7.7-.8-.5-.2-.9-.7-.9-1.4s.7-1.6,1.8-1.6.5,0,.6,0c.2,0,.4,0,.6,0s.5,0,.7-.2l.2.7c-.1,0-.5.2-.7.1.2.1.3.4.3.8,0,.9-.7,1.6-1.8,1.6s-.7,0-.7.3,0,.2.2.2l1.3.5c.8.3,1.3.7,1.3,1.6s-.9,1.6-2.1,1.6ZM138,161.7l-.9-.3c-.6,0-1,.5-1,1s.5,1,1.4,1,1.4-.5,1.4-.9-.3-.7-.8-.9ZM137.4,157.5c-.6,0-1,.4-1,.9s.4.9,1,.9,1-.4,1-.9-.4-.9-1-.9Z"/>
      <path class="st9" d="M147.5,161.7v-3h-3.7v3h-.9v-6.7h.9v3h3.7v-3h.9v6.7h-.9Z"/>
      <path class="st9" d="M153,161.7v-3.1c0-.6-.4-1.1-1.2-1.1s-1.3.5-1.3,1.1v3.1h-.8v-7.5h.8v3.3h0c.2-.4.7-.7,1.4-.7s1.8.7,1.8,1.7v3.2h-.8Z"/>
      <path class="st9" d="M157.7,161.7v-6.7h.9v6.7h-.9Z"/>
      <path class="st9" d="M160.5,156c-.2,0-.5-.4-.5-.5s.3-.5.5-.5.5.3.5.5-.3.5-.5.5ZM160.1,161.7v-4.8h.8v4.8h-.8Z"/>
      <path class="st9" d="M163.9,163.1l-.6-.6c1.1-.2,1.7-.9,1.7-2.2v-5.3h.9v5.4c0,1.7-1,2.5-2,2.7Z"/>
      <path class="st9" d="M166.8,164.2l-.5-.5c.6-.1,1-.6,1-1.5v-5.2h.8v5.3c0,1-.6,1.7-1.3,1.9ZM167.8,156c-.2,0-.5-.4-.5-.5s.3-.5.5-.5.5.3.5.5-.3.5-.5.5Z"/>
      <path class="st9" d="M175.7,161.7l-2.8-3.2h0v3.2h-.9v-6.7h.9v3.2h0l2.8-3.2h1l-2.9,3.3,3,3.4h-1.1Z"/>
      <path class="st9" d="M180.6,161.7l-2.1-2.3h0v2.3h-.8v-7.5h.8v5h0l2.1-2.3h1l-2.2,2.4,2.3,2.4h-1.1Z"/>
      <path class="st9" d="M184.8,161.7v-6.7h.9v6h3.1v.8h-3.9Z"/>
      <path class="st9" d="M190.4,161.9c-.3,0-.9-.4-.9-1.3v-6.4h.8v6.3c0,.5.3.8.6.8l-.6.6Z"/>
      <path class="st9" d="M200.9,161.7l-.3-3.3c0-.5,0-1.1-.1-1.6h0c-.2.5-.6,1.2-.8,1.7l-1.6,3.3h-.3l-1.6-3.3c-.2-.5-.5-1.1-.8-1.7h0c0,.5,0,1.2-.1,1.6l-.3,3.3h-.8l.6-6.7h.5l1.8,3.6c.3.5.6,1.2.9,1.8h0c.2-.6.5-1.2.8-1.8l1.8-3.6h.5l.6,6.7h-.8Z"/>
      <path class="st9" d="M209,161.7v-3.2c0-.6-.3-1-1.1-1s-1.2.5-1.2,1v3.2h-.8v-3.2c0-.6-.2-1-1.1-1s-1.2.5-1.2,1v3.2h-.8v-4.8h.8v.6h0c.2-.4.6-.8,1.4-.8s1.2.3,1.4.8c.2-.4.8-.8,1.6-.8,1.1,0,1.8.6,1.8,1.7v3.2h-.8Z"/>
      <path class="st9" d="M219.3,161.9l-3.2-3.6c-.5-.6-1.1-1.3-1.6-1.9h0c0,.6,0,1.2,0,1.8v3.5h-.9v-6.7h.6l3,3.4c.4.5,1,1.2,1.5,1.7h0c0-.6,0-1.2,0-1.7v-3.4h.9v6.9h-.3Z"/>
      <path class="st9" d="M224.1,161.7v-3.1c0-.6-.4-1.1-1.2-1.1s-1.3.5-1.3,1.1v3.1h-.8v-4.8h.7v.7h0c.2-.4.6-.8,1.5-.8s1.8.7,1.8,1.7v3.2h-.8Z"/>
      <path class="st9" d="M53.5,174.5c-1.8,0-3.5-1.4-3.5-3.5s1.7-3.5,3.5-3.5,3.5,1.4,3.5,3.5-1.7,3.5-3.5,3.5ZM53.5,168.3c-1.4,0-2.7,1-2.7,2.7s1.3,2.7,2.7,2.7,2.7-1,2.7-2.7-1.3-2.7-2.7-2.7Z"/>
      <path class="st9" d="M60.4,174.5c-1.4,0-2.5-1-2.5-2.5s1.1-2.5,2.5-2.5,2.5,1,2.5,2.5-1.1,2.5-2.5,2.5ZM60.4,170.2c-.9,0-1.7.7-1.7,1.8s.8,1.8,1.7,1.8,1.7-.7,1.7-1.8-.8-1.8-1.7-1.8Z"/>
      <path class="st9" d="M68.6,171.4h-1.2v3h-.9v-6.7h2c1,0,2,.6,2,1.9s-1,1.9-2,1.9ZM68.4,168.4h-1v2.2h1.1c.7,0,1.3-.4,1.3-1.1s-.6-1.1-1.3-1.1Z"/>
      <path class="st9" d="M73.7,174.5c-.6,0-1.2-.2-1.4-.5v2.8h-.8v-7.2h.8v.5h0c.2-.3.7-.6,1.5-.6,1.1,0,2.3.9,2.3,2.5s-1,2.5-2.4,2.5ZM73.7,170.2c-.6,0-1.1.3-1.3.6v2.4c.2.2.6.5,1.3.5.9,0,1.7-.7,1.7-1.8s-.7-1.8-1.7-1.8Z"/>
      <path class="st9" d="M86.4,175.7c-.1,0-.2,0-.4,0-.7,0-1.2-.2-1.9-.5-.6-.3-1.1-.6-1.5-.7-1.7-.1-3.2-1.5-3.2-3.5s1.7-3.5,3.5-3.5,3.5,1.4,3.5,3.5-1.2,3.1-2.7,3.3h0c.3,0,.6.2.9.3.6.3,1,.4,1.4.4s.5,0,.8-.1l-.6.8ZM83,168.3c-1.4,0-2.7,1-2.7,2.7s1.3,2.7,2.7,2.7,2.7-1,2.7-2.7-1.3-2.7-2.7-2.7Z"/>
      <path class="st9" d="M91.2,176.8v-2.8c-.2.2-.8.5-1.3.5-1.4,0-2.5-1-2.5-2.5s1-2.5,2.5-2.5,1.2.2,1.5.4l.4-.4h.2v7.3h-.8ZM91.2,170.6c-.2-.2-.7-.4-1.2-.4-1.1,0-1.8.8-1.8,1.8s.8,1.8,1.8,1.8,1.1-.3,1.3-.5v-2.7Z"/>
      <path class="st9" d="M99.7,174.4l-2.2-3h-.9v3h-.9v-6.7h1.9c1,0,2,.6,2,1.9s-.5,1.5-1.3,1.7l2.3,3.2h-1.1ZM97.5,168.4h-.9v2.2h1c.7,0,1.3-.4,1.3-1.1s-.6-1.1-1.3-1.1Z"/>
      <path class="st9" d="M103.6,170.4c0,0-.2,0-.4,0-.7,0-1.4.4-1.4,1.6v2.4h-.8v-4.8h.8v1h0c.2-.7.7-1.1,1.4-1.1s.3,0,.5,0l-.2.8Z"/>
      <path class="st9" d="M108.7,174.5c-.7,0-1.4-.2-1.7-.5v-.9c.4.4,1,.6,1.8.6s1.4-.5,1.4-1.1-.4-1-1.3-1.4c-1.2-.4-1.8-1-1.8-1.9s.7-1.7,2-1.7,1.2.2,1.4.4l-.2.7c-.3-.2-.8-.4-1.3-.4-.8,0-1.2.5-1.2,1s.4.9,1.2,1.2c1.2.4,1.9,1,1.9,2.1s-.8,1.9-2.2,1.9Z"/>
      <path class="st9" d="M113.2,174.5c-.6,0-1-.1-1.3-.4v-.8c.2.3.8.5,1.3.5s.9-.3.9-.7-.3-.6-.8-.8c-.9-.3-1.4-.7-1.4-1.5s.6-1.3,1.5-1.3,1,.2,1.2.3l-.2.7c-.2-.2-.6-.3-1-.3s-.7.3-.7.6.3.5.8.7c.9.3,1.5.8,1.5,1.6s-.6,1.4-1.7,1.4Z"/>
      <path class="st9" d="M120.8,168.4v6h-.9v-6h-2.2v-.7h5.3v.7h-2.2Z"/>
      <path class="st9" d="M126.6,170.3h-1.6v2.8c0,.6.3.8.8.8s.3,0,.5,0v.6c-.2,0-.4,0-.6,0-.8,0-1.4-.5-1.4-1.3v-2.9h-1v-.6h1v-1l.8-.4v1.4h1.7v.6Z"/>
      <path class="st9" d="M132.8,174.5c-1.6,0-2.7-.9-2.7-2.5v-4.4h.9v4.3c0,1.1.6,1.8,1.8,1.8s1.8-.7,1.8-1.8v-4.3h.8v4.4c0,1.6-1.1,2.5-2.7,2.5Z"/>
      <path class="st9" d="M140.1,174.4v-.7h0c-.2.4-.6.8-1.5.8s-1.8-.7-1.8-1.7v-3.2h.8v3.1c0,.6.4,1.1,1.2,1.1s1.3-.5,1.3-1.1v-3.1h.8v4.8h-.7Z"/>
      <path class="st9" d="M147.1,174.5h-.3l-2.7-6.8h.9l1.3,3.4c.2.5.4,1.1.6,1.7h0c.2-.6.4-1.2.6-1.7l1.3-3.4h.8l-2.7,6.8Z"/>
      <path class="st9" d="M152.4,174.5h-.3l-2-4.9h.8l1,2.3c.1.3.3.8.4,1.2h0c.1-.4.3-.8.4-1.2l1-2.3h.8l-2,4.9Z"/>
      <path class="st9" d="M164.2,174.5h-.3l-1.3-3.7c-.2-.6-.4-1.1-.6-1.9h0c-.2.7-.4,1.3-.6,1.9l-1.3,3.7h-.3l-2.4-6.8h.9l1.2,3.3c.2.5.4,1.1.5,1.7h0c.2-.6.4-1.2.5-1.7l1.1-3.3h.8l1.2,3.3c.2.5.3,1.1.5,1.7h0c.1-.6.4-1.2.5-1.7l1.2-3.3h.8l-2.4,6.8Z"/>
      <path class="st9" d="M172.1,174.5h-.3l-.9-2.5c-.1-.4-.3-.8-.4-1.3h0c-.1.4-.3.9-.4,1.3l-.9,2.5h-.3l-1.8-4.9h.8l.8,2.2c.1.3.3.8.3,1.1h0c0-.3.2-.8.4-1.1l.8-2.2h.6l.8,2.2c.1.4.2.8.4,1.1h0c.1-.4.2-.8.4-1.1l.8-2.2h.7l-1.8,4.9Z"/>
      <path class="st9" d="M181.4,174.4l-1.2-1.9c-.2-.3-.4-.6-.5-.9h0c-.2.3-.4.7-.6.9l-1.2,1.9h-.9l2.2-3.4-2.1-3.3h1l1.1,1.8c.2.3.4.6.5.9h0c.1-.3.3-.6.5-.9l1.1-1.8h.9l-2.1,3.3,2.2,3.5h-1Z"/>
      <path class="st9" d="M186.3,174.4l-.7-1.2c-.1-.2-.2-.4-.3-.6h0c-.1.2-.3.4-.4.6l-.7,1.2h-.9l1.5-2.4-1.4-2.4h.9l.7,1.1c.1.2.2.4.3.5h0c0-.2.2-.4.3-.5l.7-1.1h.9l-1.4,2.3,1.5,2.5h-.9Z"/>
      <path class="st9" d="M193.7,171.3v3.1h-.8v-3.1l-2.6-3.6h1l1.4,2c.2.3.5.7.7,1h0c.2-.3.5-.7.7-1l1.4-2h.9l-2.6,3.6Z"/>
      <path class="st9" d="M198.8,174c-.7,1.7-1.5,2.5-2.4,2.9l-.5-.5c.9-.4,1.5-1,2.1-2.3l-1.8-4.4h.8l1,2.3c.1.3.3.8.4,1.2h0c.1-.4.3-.9.5-1.2l1-2.3h.8l-1.8,4.3Z"/>
      <path class="st9" d="M203.7,174.4v-.2l2.2-3.9c.4-.6.8-1.4,1.2-1.9h0s-3.2,0-3.2,0v-.7h4.4v.2l-2.2,3.9c-.4.6-.8,1.3-1.1,1.9h0s3.5,0,3.5,0v.8h-4.7Z"/>
      <path class="st9" d="M209.2,174.4v-.2l1.6-2.6c.3-.4.6-.9.8-1.3h0s-2.2,0-2.2,0v-.7h3.4v.2l-1.6,2.6c-.3.4-.5.9-.8,1.3h0s2.6,0,2.6,0v.7h-3.8Z"/>
    </g>
    <g>
      <path class="st9" d="M59.4,141.2l-1.4-3.4h-5.1l-1.4,3.4h-1.6l5.2-12.7h.6l5.2,12.7h-1.6ZM56.1,133c-.2-.5-.4-1.1-.6-1.7h0c-.2.6-.4,1.2-.6,1.7l-1.4,3.5h4l-1.4-3.5Z"/>
      <path class="st9" d="M66.1,145.7c-2.4,0-4-1.3-4-3.1s1-2.4,2-2.6l-.9-.9c0-.7.5-1.3,1.2-1.4-.9-.4-1.6-1.3-1.6-2.5s1.4-3,3.3-3,.8,0,1.2.2c.3,0,.7.1,1.2.1s1-.2,1.3-.3l.3,1.3c-.3.2-.8.3-1.2.3.3.3.5.8.5,1.5,0,1.6-1.2,3-3.3,3s-1.3.2-1.3.6.2.4.5.5l2.4.8c1.5.5,2.4,1.4,2.4,2.9s-1.6,2.9-3.9,2.9ZM67.2,141.2l-1.7-.5c-1.1,0-1.9.8-1.9,1.9s.9,1.9,2.6,1.9,2.5-.8,2.5-1.6-.5-1.3-1.5-1.6ZM66.1,133.3c-1.1,0-1.9.8-1.9,1.7s.8,1.7,1.9,1.7,1.9-.8,1.9-1.7-.8-1.7-1.9-1.7Z"/>
      <path class="st9" d="M79.2,136.1l-.8.8h-5.8c0,1.5,1.2,3.1,3.4,3.1s1.9-.3,2.6-.8l-.2,1.4c-.6.4-1.4.6-2.6.6-2.6,0-4.7-1.9-4.7-4.7s2.2-4.7,4.3-4.7,3.8,1.7,3.8,3.4,0,.5,0,.6ZM75.5,133.3c-1.3,0-2.6,1.1-2.8,2.5h5.1c0,0,0-.2,0-.3,0-1-.8-2.2-2.3-2.2Z"/>
      <path class="st9" d="M87.2,141.2v-5.8c0-1.1-.7-2-2.3-2s-2.3.9-2.3,2v5.8h-1.5v-8.9h1.4v1.2h0c.3-.8,1.2-1.5,2.8-1.5s3.4,1.2,3.4,3.2v5.9h-1.5Z"/>
      <path class="st9" d="M97.6,141.2v-1h0c-.4.6-1.3,1.2-2.7,1.2-2.1,0-4.4-1.7-4.4-4.7s1.9-4.7,4.5-4.7,2.1.4,2.5.8v-5.7h1.5v14h-1.4ZM97.6,134.4c-.4-.4-1.2-1-2.4-1-1.7,0-3.1,1.4-3.1,3.3s1.4,3.3,3.1,3.3,2-.6,2.4-1.2v-4.5Z"/>
      <path class="st9" d="M107.7,141.4c-.6-.1-1.3-.7-1.4-1.5-.4,1-1.4,1.5-2.5,1.5-1.7,0-2.8-1.2-2.8-2.7s1.4-2.6,2.9-2.8l2.2-.2v-.7c0-.9-.6-1.6-1.9-1.6s-1.8.3-2.4.7l-.3-1.3c.7-.5,1.7-.7,2.8-.7,1.9,0,3.4,1.1,3.4,3.1v3.8c0,.8.5,1.3,1,1.4l-1,1ZM106.1,136.9l-1.9.2c-1.2.1-1.8.8-1.8,1.6s.6,1.4,1.5,1.4,2.1-.8,2.1-2.1v-1Z"/>
    </g>
    <g>
      <path class="st9" d="M275.1,190.7l-.3,1.3h.7v.5h-.8l-.5,2.2h-.6l.5-2.2h-1.1l-.5,2.2h-.6l.5-2.2h-.6v-.5h.7l.3-1.3h-.7v-.5h.8l.5-2.2h.6l-.5,2.2h1.1l.5-2.2h.6l-.5,2.2h.6v.5h-.7ZM273.4,190.7l-.3,1.3h1.1l.3-1.3h-1.1Z"/>
      <path class="st9" d="M278.5,194.7h-1.9v-6.7h1.9c2,0,3.7,1.2,3.7,3.4s-1.7,3.4-3.7,3.4ZM278.3,188.7h-.9v5.3h.9c1.6,0,2.9-.9,2.9-2.6s-1.3-2.6-2.9-2.6Z"/>
      <path class="st9" d="M285.2,194.7h-1.9v-6.7h1.9c2,0,3.7,1.2,3.7,3.4s-1.7,3.4-3.7,3.4ZM285.1,188.7h-.9v5.3h.9c1.6,0,2.9-.9,2.9-2.6s-1.3-2.6-2.9-2.6Z"/>
      <path class="st9" d="M291,194.7h-.9l2.6-6h-3.3v-.7h4.4l-2.9,6.7Z"/>
      <path class="st9" d="M296.4,194.9c-1.2,0-2.2-.7-2.2-2s.8-1.6,1.4-1.8c-.6-.2-1.1-.7-1.1-1.5s.8-1.7,1.9-1.7,1.9.7,1.9,1.7-.5,1.3-1.1,1.5c.6.2,1.4.8,1.4,1.9s-1,2-2.2,2ZM296.4,191.4c-.7.2-1.4.7-1.4,1.4s.7,1.3,1.4,1.3,1.4-.5,1.4-1.3-.8-1.3-1.5-1.4ZM296.4,188.6c-.6,0-1.1.4-1.1,1s.5,1,1.2,1.2c.7-.2,1.1-.6,1.1-1.2s-.5-1-1.1-1Z"/>
      <path class="st9" d="M300.4,194.7v-6.1h-1.2c0,.1.2-.6.2-.6l1.8-.2v6.8h-.8Z"/>
      <path class="st9" d="M304.5,194.7h-1.9v-6.7h1.9c2,0,3.7,1.2,3.7,3.4s-1.7,3.4-3.7,3.4ZM304.4,188.7h-.9v5.3h.9c1.6,0,2.9-.9,2.9-2.6s-1.3-2.6-2.9-2.6Z"/>
    </g>
    <rect class="st5" x="270.2" y="128.4" width="64.3" height="49.7"/>
    <g>
      <path class="st9" d="M273.4,224.2v-6.1h-1.2c0,.1.2-.6.2-.6l1.8-.2v6.8h-.8Z"/>
      <path class="st9" d="M276.2,224.2v-6.1h-1.2c0,.1.2-.6.2-.6l1.8-.2v6.8h-.8Z"/>
      <path class="st9" d="M282.9,224.3c-1.2,0-2.2-.9-2.2-2.4s1.3-3.7,3.1-4.7l.8.4c-1.3.7-2.3,1.6-2.8,2.9.3-.3.6-.5,1.2-.5,1.3,0,2.1.9,2.1,2.2s-.9,2.2-2.2,2.2ZM282.9,220.8c-.6,0-1.2.3-1.4,1,0,.1,0,.2,0,.3,0,.9.7,1.5,1.4,1.5s1.4-.6,1.4-1.4-.6-1.4-1.4-1.4Z"/>
      <path class="st9" d="M286.9,224.3c-.4,0-.9-.1-1.2-.3v-.8c.3.2.7.4,1.2.4.9,0,1.6-.5,1.6-1.5s-.7-1.4-1.5-1.4-.2,0-.3,0l-.2-.7c.8-.1,1.4-.6,1.4-1.2s-.4-.9-1-.9-.7,0-1.1.3l-.2-.7c.4-.2.8-.3,1.3-.3,1,0,1.8.6,1.8,1.5s-.5,1.2-1,1.4c.8.1,1.6.8,1.6,2s-.9,2.1-2.4,2.1Z"/>
      <path class="st9" d="M293.4,224.2v-6.1h-1.2c0,.1.2-.6.2-.6l1.8-.2v6.8h-.8Z"/>
      <path class="st9" d="M297.7,224.3c-1.2,0-2.3-1.2-2.3-3.5s1-3.5,2.3-3.5,2.3,1.2,2.3,3.5-1.1,3.5-2.3,3.5ZM297.7,218.1c-.7,0-1.4.8-1.4,2.8s.7,2.8,1.4,2.8,1.4-.8,1.4-2.8-.7-2.8-1.4-2.8Z"/>
      <path class="st9" d="M303,224.3c-1.2,0-2.3-1.2-2.3-3.5s1-3.5,2.3-3.5,2.3,1.2,2.3,3.5-1.1,3.5-2.3,3.5ZM303,218.1c-.7,0-1.4.8-1.4,2.8s.7,2.8,1.4,2.8,1.4-.8,1.4-2.8-.7-2.8-1.4-2.8Z"/>
      <path class="st9" d="M309.5,224.2v-6.1h-1.2c0,.1.2-.6.2-.6l1.8-.2v6.8h-.8Z"/>
    </g>
    <g>
      <path class="st9" d="M277.9,207c-.4-.2-1-.5-1.7-.5-1.4,0-2.8,1-2.8,2.7s1.4,2.7,2.8,2.7,1.3-.2,1.8-.4v.8c-.5.2-1,.3-1.8.3-1.8,0-3.5-1.3-3.5-3.4s1.8-3.4,3.5-3.4,1.5.2,2,.4l-.2.7Z"/>
      <path class="st9" d="M285.8,212.6l-.3-3.3c0-.5,0-1.1-.1-1.6h0c-.2.5-.6,1.2-.8,1.7l-1.6,3.3h-.3l-1.6-3.3c-.2-.5-.5-1.1-.8-1.7h0c0,.5,0,1.2-.1,1.6l-.3,3.3h-.8l.6-6.7h.5l1.8,3.6c.3.5.6,1.2.9,1.8h0c.2-.6.5-1.2.8-1.8l1.8-3.6h.5l.6,6.7h-.8Z"/>
      <path class="st9" d="M290.8,209.5v3.1h-.8v-3.1l-2.6-3.6h1l1.4,2c.2.3.5.7.7,1h0c.2-.3.5-.7.7-1l1.4-2h.9l-2.6,3.6Z"/>
      <path class="st9" d="M298,212.6l-2.8-3.2h0v3.2h-.9v-6.7h.9v3.2h0l2.8-3.2h1l-2.9,3.3,3,3.4h-1.1Z"/>
      <path class="st9" d="M300.3,208.8c-.2,0-.6-.4-.6-.6s.4-.6.6-.6.6.4.6.6-.4.6-.6.6ZM300.3,212.7c-.2,0-.6-.4-.6-.6s.4-.6.6-.6.6.4.6.6-.4.6-.6.6Z"/>
    </g>
    <g>
      <path class="st9" d="M272.5,252.1v-.2c1.8-2,2.9-3.6,2.9-4.7s-.5-1.4-1.2-1.4-1,.2-1.3.4l-.2-.7c.4-.3.9-.4,1.5-.4,1.2,0,2,.7,2,2.1s-1.1,2.7-2.4,4.1h2.7v.7h-4Z"/>
      <path class="st9" d="M277.3,252.1v-.2c1.8-2,2.9-3.6,2.9-4.7s-.5-1.4-1.2-1.4-1,.2-1.3.4l-.2-.7c.4-.3.9-.4,1.5-.4,1.2,0,2,.7,2,2.1s-1.1,2.7-2.4,4.1h2.7v.7h-4Z"/>
      <path class="st9" d="M283,252.1v-6.1h-1.2c0,.1.2-.6.2-.6l1.8-.2v6.8h-.8Z"/>
      <path class="st9" d="M288.3,252.1v-6.1h-1.2c0,.1.2-.6.2-.6l1.8-.2v6.8h-.8Z"/>
      <path class="st9" d="M290.2,252.1v-.2c1.8-2,2.9-3.6,2.9-4.7s-.5-1.4-1.2-1.4-1,.2-1.3.4l-.2-.7c.4-.3.9-.4,1.5-.4,1.2,0,2,.7,2,2.1s-1.1,2.7-2.4,4.1h2.7v.7h-4Z"/>
      <path class="st9" d="M297.3,252.2c-1.2,0-2.3-1.2-2.3-3.5s1-3.5,2.3-3.5,2.3,1.2,2.3,3.5-1.1,3.5-2.3,3.5ZM297.3,245.9c-.8,0-1.4.8-1.4,2.8s.7,2.8,1.4,2.8,1.4-.8,1.4-2.8-.7-2.8-1.4-2.8Z"/>
      <path class="st9" d="M304.2,252.2c-.4,0-.9-.1-1.2-.3v-.8c.3.2.7.4,1.2.4.9,0,1.6-.5,1.6-1.5s-.7-1.4-1.5-1.4-.2,0-.3,0l-.2-.7c.8-.1,1.4-.6,1.4-1.2s-.4-.9-1-.9-.7,0-1.1.3l-.2-.7c.4-.2.8-.3,1.3-.3,1,0,1.8.6,1.8,1.5s-.5,1.2-1,1.4c.8.1,1.6.8,1.6,2s-.9,2.1-2.4,2.1Z"/>
      <path class="st9" d="M308.6,252.2l-.8-.4c1.3-.7,2.3-1.7,2.8-2.9-.3.3-.6.5-1.2.5-1.3,0-2.1-.9-2.1-2.2s.9-2.2,2.2-2.2,2.2.8,2.2,2.4-1.3,3.7-3.1,4.7ZM309.5,245.9c-.8,0-1.4.6-1.4,1.4s.6,1.4,1.4,1.4,1.2-.3,1.4-1.1c0-.1,0-.2,0-.3,0-.9-.7-1.5-1.4-1.5Z"/>
    </g>
    <g>
      <path class="st9" d="M276.8,240.4l-2.2-3h-.9v3h-.9v-6.7h1.9c1,0,2,.6,2,1.9s-.5,1.5-1.3,1.7l2.3,3.2h-1.1ZM274.7,234.4h-.9v2.2h1c.7,0,1.3-.4,1.3-1.1s-.6-1.1-1.3-1.1Z"/>
      <path class="st9" d="M281.4,240.5c-1.8,0-3.7-1.3-3.7-3.5s1.9-3.5,3.6-3.5,1.6.2,2.1.5l-.2.8c-.5-.3-1.2-.5-1.9-.5-1.4,0-2.8,1-2.8,2.7s1.4,2.7,2.8,2.7,1.2-.2,1.6-.4v-1.6h-1.7v-.7h2.5v2.7c-.6.5-1.4.7-2.5.7Z"/>
      <path class="st9" d="M287.3,240.4h-2.1v-6.7h1.8c.9,0,1.9.6,1.9,1.7s-.3,1-.7,1.2c.7.2,1.3.9,1.3,1.8,0,1.3-1.1,2-2.2,2ZM286.8,234.4h-.8v2h.8c.6,0,1.1-.3,1.1-1s-.5-1-1.1-1ZM287.1,237.1h-1.1v2.6h1.1c.8,0,1.5-.4,1.5-1.3s-.7-1.3-1.5-1.3Z"/>
      <path class="st9" d="M290.9,236.7c-.2,0-.6-.4-.6-.6s.4-.6.6-.6.6.4.6.6-.4.6-.6.6ZM290.9,240.5c-.2,0-.6-.4-.6-.6s.4-.6.6-.6.6.4.6.6-.4.6-.6.6Z"/>
    </g>
    <rect class="st11" x="355.5" y="127.6" width="64.3" height="50.1"/>
    <g>
      <path class="st9" d="M358.6,190.7l-.3,1.3h.7v.5h-.8l-.5,2.2h-.6l.5-2.2h-1.1l-.5,2.2h-.6l.5-2.2h-.6v-.5h.7l.3-1.3h-.7v-.5h.8l.5-2.2h.6l-.5,2.2h1.1l.5-2.2h.6l-.5,2.2h.6v.5h-.7ZM357,190.7l-.3,1.3h1.1l.3-1.3h-1.1Z"/>
      <path class="st9" d="M359.8,194.7v-.2c1.8-2,2.9-3.6,2.9-4.7s-.5-1.4-1.2-1.4-1,.2-1.3.4l-.2-.7c.4-.3.9-.4,1.5-.4,1.2,0,2,.7,2,2.1s-1.1,2.7-2.4,4.1h2.7v.7h-4Z"/>
      <path class="st9" d="M366.9,194.9c-1.2,0-2.3-1.2-2.3-3.5s1-3.5,2.3-3.5,2.3,1.2,2.3,3.5-1.1,3.5-2.3,3.5ZM366.9,188.6c-.7,0-1.4.8-1.4,2.8s.7,2.8,1.4,2.8,1.4-.8,1.4-2.8-.7-2.8-1.4-2.8Z"/>
      <path class="st9" d="M371.3,194.9l-.8-.4c1.3-.7,2.3-1.7,2.8-2.9-.3.3-.6.5-1.2.5-1.3,0-2.1-.9-2.1-2.2s.9-2.2,2.2-2.2,2.2.8,2.2,2.4-1.3,3.7-3.1,4.7ZM372.1,188.6c-.8,0-1.4.6-1.4,1.4s.6,1.4,1.4,1.4,1.2-.3,1.4-1.1c0-.1,0-.2,0-.3,0-.9-.7-1.5-1.4-1.5Z"/>
      <path class="st9" d="M377.5,194.9c-1.2,0-2.3-1.2-2.3-3.5s1-3.5,2.3-3.5,2.3,1.2,2.3,3.5-1.1,3.5-2.3,3.5ZM377.5,188.6c-.7,0-1.4.8-1.4,2.8s.7,2.8,1.4,2.8,1.4-.8,1.4-2.8-.7-2.8-1.4-2.8Z"/>
      <path class="st9" d="M386,189.1c-.4-.2-1-.5-1.7-.5-1.4,0-2.8,1-2.8,2.7s1.4,2.7,2.8,2.7,1.3-.2,1.8-.4v.8c-.5.2-1,.3-1.8.3-1.8,0-3.5-1.3-3.5-3.4s1.8-3.4,3.5-3.4,1.5.2,2,.4l-.2.7Z"/>
      <path class="st9" d="M387.3,194.7v-6.7h3.6v.7h-2.7v2.2h2.2v.7h-2.2v2.3h3.1v.8h-3.9Z"/>
    </g>
    <g>
      <path class="st9" d="M357.3,224.2h-.9l2.6-6h-3.3v-.7h4.4l-2.9,6.7Z"/>
      <path class="st9" d="M362.3,224.2h-.9l2.6-6h-3.3v-.7h4.4l-2.9,6.7Z"/>
      <path class="st9" d="M369.6,224.3c-.4,0-.9-.1-1.2-.3v-.8c.3.2.7.4,1.2.4.9,0,1.6-.5,1.6-1.5s-.7-1.4-1.5-1.4-.2,0-.3,0l-.2-.7c.8-.1,1.4-.6,1.4-1.2s-.4-.9-1-.9-.7,0-1.1.3l-.2-.7c.4-.2.8-.3,1.3-.3,1,0,1.8.6,1.8,1.5s-.5,1.2-1,1.4c.8.1,1.6.8,1.6,2s-.9,2.1-2.4,2.1Z"/>
      <path class="st9" d="M373.7,224.2v-6.1h-1.2c0,.1.2-.6.2-.6l1.8-.2v6.8h-.8Z"/>
      <path class="st9" d="M380.4,224.3c-1.2,0-2.3-1.2-2.3-3.5s1-3.5,2.3-3.5,2.3,1.2,2.3,3.5-1.1,3.5-2.3,3.5ZM380.4,218.1c-.8,0-1.4.8-1.4,2.8s.7,2.8,1.4,2.8,1.4-.8,1.4-2.8-.7-2.8-1.4-2.8Z"/>
      <path class="st9" d="M388.3,224.3c-1.2,0-2.3-1.2-2.3-3.5s1-3.5,2.3-3.5,2.3,1.2,2.3,3.5-1.1,3.5-2.3,3.5ZM388.3,218.1c-.8,0-1.4.8-1.4,2.8s.7,2.8,1.4,2.8,1.4-.8,1.4-2.8-.7-2.8-1.4-2.8Z"/>
    </g>
    <g>
      <path class="st9" d="M361.5,207c-.4-.2-1-.5-1.7-.5-1.4,0-2.8,1-2.8,2.7s1.4,2.7,2.8,2.7,1.3-.2,1.8-.4v.8c-.5.2-1,.3-1.8.3-1.8,0-3.5-1.3-3.5-3.4s1.8-3.4,3.5-3.4,1.5.2,2,.4l-.2.7Z"/>
      <path class="st9" d="M369.3,212.6l-.3-3.3c0-.5,0-1.1-.1-1.6h0c-.2.5-.6,1.2-.8,1.7l-1.6,3.3h-.3l-1.6-3.3c-.2-.5-.5-1.1-.8-1.7h0c0,.5,0,1.2-.1,1.6l-.3,3.3h-.8l.6-6.7h.5l1.8,3.6c.3.5.6,1.2.9,1.8h0c.2-.6.5-1.2.8-1.8l1.8-3.6h.5l.6,6.7h-.8Z"/>
      <path class="st9" d="M374.3,209.5v3.1h-.8v-3.1l-2.6-3.6h1l1.4,2c.2.3.5.7.7,1h0c.2-.3.5-.7.7-1l1.4-2h.9l-2.6,3.6Z"/>
      <path class="st9" d="M381.5,212.6l-2.8-3.2h0v3.2h-.9v-6.7h.9v3.2h0l2.8-3.2h1l-2.9,3.3,3,3.4h-1.1Z"/>
      <path class="st9" d="M383.8,208.8c-.2,0-.6-.4-.6-.6s.4-.6.6-.6.6.4.6.6-.4.6-.6.6ZM383.8,212.7c-.2,0-.6-.4-.6-.6s.4-.6.6-.6.6.4.6.6-.4.6-.6.6Z"/>
    </g>
    <g>
      <path class="st9" d="M357.4,252.2c-.4,0-.9-.1-1.2-.3v-.8c.3.2.7.4,1.2.4.9,0,1.6-.5,1.6-1.5s-.7-1.4-1.5-1.4-.2,0-.3,0l-.2-.7c.8-.1,1.4-.6,1.4-1.2s-.4-.9-1-.9-.7,0-1.1.3l-.2-.7c.4-.2.8-.3,1.3-.3,1,0,1.8.6,1.8,1.5s-.5,1.2-1,1.4c.8.1,1.6.8,1.6,2s-.9,2.1-2.4,2.1Z"/>
      <path class="st9" d="M361.6,252.1h-.9l2.6-6h-3.3v-.7h4.4l-2.9,6.7Z"/>
      <path class="st9" d="M368.4,252.1v-6.1h-1.2c0,.1.2-.6.2-.6l1.8-.2v6.8h-.8Z"/>
      <path class="st9" d="M373.8,250.2v1.9h-.8v-1.9h-2.8v-.7c-.1,0,3.1-4.2,3.1-4.2h.5v4.2h.8v.7h-.8ZM373,246.8c-.2.3-.5.6-.7.9l-1.4,1.8h2.1v-1.8c0-.3,0-.6,0-.9h0Z"/>
      <path class="st9" d="M377.1,252.2c-.5,0-1-.1-1.3-.3v-.8c.3.3.8.4,1.3.4.9,0,1.6-.6,1.6-1.5s-.7-1.5-1.5-1.5-.9,0-1.2.2v-3.4h3l-.2.7h-2v1.9s.2,0,.4,0c1.2,0,2.3.8,2.3,2.2s-.8,2.1-2.3,2.1Z"/>
      <path class="st9" d="M382.7,252.1v-.2c1.8-2,2.9-3.6,2.9-4.7s-.5-1.4-1.2-1.4-1,.2-1.3.4l-.2-.7c.4-.3.9-.4,1.5-.4,1.2,0,2,.7,2,2.1s-1.1,2.7-2.4,4.1h2.7v.7h-4Z"/>
      <path class="st9" d="M389.8,252.2c-1.2,0-2.3-1.2-2.3-3.5s1-3.5,2.3-3.5,2.3,1.2,2.3,3.5-1.1,3.5-2.3,3.5ZM389.8,245.9c-.8,0-1.4.8-1.4,2.8s.7,2.8,1.4,2.8,1.4-.8,1.4-2.8-.7-2.8-1.4-2.8Z"/>
      <path class="st9" d="M395.1,252.2c-1.2,0-2.2-.9-2.2-2.4s1.3-3.7,3.1-4.7l.8.4c-1.3.7-2.3,1.6-2.8,2.9.3-.3.6-.5,1.2-.5,1.3,0,2.1.9,2.1,2.2s-.9,2.2-2.2,2.2ZM395.1,248.6c-.6,0-1.2.3-1.4,1,0,.1,0,.2,0,.3,0,.9.7,1.5,1.4,1.5s1.4-.6,1.4-1.4-.6-1.4-1.4-1.4Z"/>
    </g>
    <g>
      <path class="st9" d="M360.3,240.4l-2.2-3h-.9v3h-.9v-6.7h1.9c1,0,2,.6,2,1.9s-.5,1.5-1.3,1.7l2.3,3.2h-1.1ZM358.2,234.4h-.9v2.2h1c.7,0,1.3-.4,1.3-1.1s-.6-1.1-1.3-1.1Z"/>
      <path class="st9" d="M364.9,240.5c-1.8,0-3.7-1.3-3.7-3.5s1.9-3.5,3.6-3.5,1.6.2,2.1.5l-.2.8c-.5-.3-1.2-.5-1.9-.5-1.4,0-2.8,1-2.8,2.7s1.4,2.7,2.8,2.7,1.2-.2,1.6-.4v-1.6h-1.7v-.7h2.5v2.7c-.6.5-1.4.7-2.5.7Z"/>
      <path class="st9" d="M370.8,240.4h-2.1v-6.7h1.8c.9,0,1.9.6,1.9,1.7s-.3,1-.7,1.2c.7.2,1.3.9,1.3,1.8,0,1.3-1.1,2-2.2,2ZM370.3,234.4h-.8v2h.8c.6,0,1.1-.3,1.1-1s-.5-1-1.1-1ZM370.6,237.1h-1.1v2.6h1.1c.8,0,1.5-.4,1.5-1.3s-.7-1.3-1.5-1.3Z"/>
      <path class="st9" d="M374.4,236.7c-.2,0-.6-.4-.6-.6s.4-.6.6-.6.6.4.6.6-.4.6-.6.6ZM374.4,240.5c-.2,0-.6-.4-.6-.6s.4-.6.6-.6.6.4.6.6-.4.6-.6.6Z"/>
    </g>
    <rect class="st2" x="440.7" y="127.6" width="64.3" height="50.1"/>
    <g>
      <path class="st9" d="M443.8,190.7l-.3,1.3h.7v.5h-.8l-.5,2.2h-.6l.5-2.2h-1.1l-.5,2.2h-.6l.5-2.2h-.6v-.5h.7l.3-1.3h-.7v-.5h.8l.5-2.2h.6l-.5,2.2h1.1l.5-2.2h.6l-.5,2.2h.6v.5h-.7ZM442.1,190.7l-.3,1.3h1.1l.3-1.3h-1.1Z"/>
      <path class="st9" d="M446.6,194.9c-.5,0-1-.1-1.3-.3v-.8c.3.3.8.4,1.3.4.9,0,1.6-.6,1.6-1.5s-.7-1.5-1.5-1.5-.9,0-1.2.2v-3.4h3l-.2.7h-2v1.9s.2,0,.4,0c1.2,0,2.3.8,2.3,2.2s-.8,2.1-2.3,2.1Z"/>
      <path class="st9" d="M452,194.9c-1.2,0-2.2-.9-2.2-2.4s1.3-3.7,3.1-4.7l.8.4c-1.3.7-2.3,1.6-2.8,2.9.3-.3.6-.5,1.2-.5,1.3,0,2.1.9,2.1,2.2s-.9,2.2-2.2,2.2ZM452,191.3c-.6,0-1.2.3-1.4,1,0,.1,0,.2,0,.3,0,.9.7,1.5,1.4,1.5s1.4-.6,1.4-1.4-.6-1.4-1.4-1.4Z"/>
      <path class="st9" d="M456.7,194.9c-.5,0-1-.1-1.3-.3v-.8c.3.3.8.4,1.3.4.9,0,1.6-.6,1.6-1.5s-.7-1.5-1.5-1.5-.9,0-1.2.2v-3.4h3l-.2.7h-2v1.9s.2,0,.4,0c1.2,0,2.3.8,2.3,2.2s-.8,2.1-2.3,2.1Z"/>
      <path class="st9" d="M462.1,194.9c-1.2,0-2.2-.9-2.2-2.4s1.3-3.7,3.1-4.7l.8.4c-1.3.7-2.3,1.6-2.8,2.9.3-.3.6-.5,1.2-.5,1.3,0,2.1.9,2.1,2.2s-.9,2.2-2.2,2.2ZM462.1,191.3c-.6,0-1.2.3-1.4,1,0,.1,0,.2,0,.3,0,.9.7,1.5,1.4,1.5s1.4-.6,1.4-1.4-.6-1.4-1.4-1.4Z"/>
      <path class="st9" d="M466.7,194.9c-.5,0-1-.1-1.3-.3v-.8c.3.3.8.4,1.3.4.9,0,1.6-.6,1.6-1.5s-.7-1.5-1.5-1.5-.9,0-1.2.2v-3.4h3l-.2.7h-2v1.9s.2,0,.4,0c1.2,0,2.3.8,2.3,2.2s-.8,2.1-2.3,2.1Z"/>
      <path class="st9" d="M472.2,194.9c-1.2,0-2.2-.9-2.2-2.4s1.3-3.7,3.1-4.7l.8.4c-1.3.7-2.3,1.6-2.8,2.9.3-.3.6-.5,1.2-.5,1.3,0,2.1.9,2.1,2.2s-.9,2.2-2.2,2.2ZM472.1,191.3c-.6,0-1.2.3-1.4,1,0,.1,0,.2,0,.3,0,.9.7,1.5,1.4,1.5s1.4-.6,1.4-1.4-.6-1.4-1.4-1.4Z"/>
    </g>
    <g>
      <path class="st9" d="M443.5,224.3c-1.2,0-2.2-.9-2.2-2.4s1.3-3.7,3.1-4.7l.8.4c-1.3.7-2.3,1.6-2.8,2.9.3-.3.6-.5,1.2-.5,1.3,0,2.1.9,2.1,2.2s-.9,2.2-2.2,2.2ZM443.5,220.8c-.6,0-1.2.3-1.4,1,0,.1,0,.2,0,.3,0,.9.7,1.5,1.4,1.5s1.4-.6,1.4-1.4-.6-1.4-1.4-1.4Z"/>
      <path class="st9" d="M447.5,224.3c-.4,0-.9-.1-1.2-.3v-.8c.3.2.7.4,1.2.4.9,0,1.6-.5,1.6-1.5s-.7-1.4-1.5-1.4-.2,0-.3,0l-.2-.7c.8-.1,1.4-.6,1.4-1.2s-.4-.9-1-.9-.7,0-1.1.3l-.2-.7c.4-.2.8-.3,1.3-.3,1,0,1.8.6,1.8,1.5s-.5,1.2-1,1.4c.8.1,1.6.8,1.6,2s-.9,2.1-2.4,2.1Z"/>
      <path class="st9" d="M454.9,224.3c-.5,0-1-.1-1.3-.3v-.8c.3.3.8.4,1.3.4.9,0,1.6-.6,1.6-1.5s-.7-1.5-1.5-1.5-.9,0-1.2.2v-3.4h3l-.2.7h-2v1.9s.2,0,.4,0c1.2,0,2.3.8,2.3,2.2s-.8,2.1-2.3,2.1Z"/>
      <path class="st9" d="M459.7,224.3c-.5,0-1-.1-1.3-.3v-.8c.3.3.8.4,1.3.4.9,0,1.6-.6,1.6-1.5s-.7-1.5-1.5-1.5-.9,0-1.2.2v-3.4h3l-.2.7h-2v1.9s.2,0,.4,0c1.2,0,2.3.8,2.3,2.2s-.8,2.1-2.3,2.1Z"/>
      <path class="st9" d="M467,224.3c-.5,0-1-.1-1.3-.3v-.8c.3.3.8.4,1.3.4.9,0,1.6-.6,1.6-1.5s-.7-1.5-1.5-1.5-.9,0-1.2.2v-3.4h3l-.2.7h-2v1.9s.2,0,.4,0c1.2,0,2.3.8,2.3,2.2s-.8,2.1-2.3,2.1Z"/>
      <path class="st9" d="M471.8,224.3c-.5,0-1-.1-1.3-.3v-.8c.3.3.8.4,1.3.4.9,0,1.6-.6,1.6-1.5s-.7-1.5-1.5-1.5-.9,0-1.2.2v-3.4h3l-.2.7h-2v1.9s.2,0,.4,0c1.2,0,2.3.8,2.3,2.2s-.8,2.1-2.3,2.1Z"/>
      <path class="st9" d="M478.8,224.3c-.4,0-.9-.1-1.2-.3v-.8c.3.2.7.4,1.2.4.9,0,1.6-.5,1.6-1.5s-.7-1.4-1.5-1.4-.2,0-.3,0l-.2-.7c.8-.1,1.4-.6,1.4-1.2s-.4-.9-1-.9-.7,0-1.1.3l-.2-.7c.4-.2.8-.3,1.3-.3,1,0,1.8.6,1.8,1.5s-.5,1.2-1,1.4c.8.1,1.6.8,1.6,2s-.9,2.1-2.4,2.1Z"/>
      <path class="st9" d="M484.3,224.3c-1.2,0-2.3-1.2-2.3-3.5s1-3.5,2.3-3.5,2.3,1.2,2.3,3.5-1.1,3.5-2.3,3.5ZM484.3,218.1c-.7,0-1.4.8-1.4,2.8s.7,2.8,1.4,2.8,1.4-.8,1.4-2.8-.7-2.8-1.4-2.8Z"/>
    </g>
    <g>
      <path class="st9" d="M446.6,207c-.4-.2-1-.5-1.7-.5-1.4,0-2.8,1-2.8,2.7s1.4,2.7,2.8,2.7,1.3-.2,1.8-.4v.8c-.5.2-1,.3-1.8.3-1.8,0-3.5-1.3-3.5-3.4s1.8-3.4,3.5-3.4,1.5.2,2,.4l-.2.7Z"/>
      <path class="st9" d="M454.5,212.6l-.3-3.3c0-.5,0-1.1-.1-1.6h0c-.2.5-.6,1.2-.8,1.7l-1.6,3.3h-.3l-1.6-3.3c-.2-.5-.5-1.1-.8-1.7h0c0,.5,0,1.2-.1,1.6l-.3,3.3h-.8l.6-6.7h.5l1.8,3.6c.3.5.6,1.2.9,1.8h0c.2-.6.5-1.2.8-1.8l1.8-3.6h.5l.6,6.7h-.8Z"/>
      <path class="st9" d="M459.5,209.5v3.1h-.8v-3.1l-2.6-3.6h1l1.4,2c.2.3.5.7.7,1h0c.2-.3.5-.7.7-1l1.4-2h.9l-2.6,3.6Z"/>
      <path class="st9" d="M466.7,212.6l-2.8-3.2h0v3.2h-.9v-6.7h.9v3.2h0l2.8-3.2h1l-2.9,3.3,3,3.4h-1.1Z"/>
      <path class="st9" d="M468.9,208.8c-.2,0-.6-.4-.6-.6s.4-.6.6-.6.6.4.6.6-.4.6-.6.6ZM468.9,212.7c-.2,0-.6-.4-.6-.6s.4-.6.6-.6.6.4.6.6-.4.6-.6.6Z"/>
    </g>
    <g>
      <path class="st9" d="M443.5,252.2c-1.2,0-2.2-.7-2.2-2s.8-1.6,1.4-1.8c-.6-.2-1.1-.7-1.1-1.5s.8-1.7,1.9-1.7,1.9.7,1.9,1.7-.5,1.3-1.1,1.5c.6.2,1.4.8,1.4,1.9s-1,2-2.2,2ZM443.4,248.8c-.7.2-1.4.7-1.4,1.4s.7,1.3,1.4,1.3,1.4-.5,1.4-1.3-.8-1.3-1.5-1.4ZM443.5,245.9c-.6,0-1.1.4-1.1,1s.5,1,1.2,1.2c.7-.2,1.1-.6,1.1-1.2s-.5-1-1.1-1Z"/>
      <path class="st9" d="M448.8,252.2c-1.2,0-2.2-.9-2.2-2.4s1.3-3.7,3.1-4.7l.8.4c-1.3.7-2.3,1.6-2.8,2.9.3-.3.6-.5,1.2-.5,1.3,0,2.1.9,2.1,2.2s-.9,2.2-2.2,2.2ZM448.8,248.6c-.6,0-1.2.3-1.4,1,0,.1,0,.2,0,.3,0,.9.7,1.5,1.4,1.5s1.4-.6,1.4-1.4-.6-1.4-1.4-1.4Z"/>
      <path class="st9" d="M456.5,252.2c-1.2,0-2.2-.7-2.2-2s.8-1.6,1.4-1.8c-.6-.2-1.1-.7-1.1-1.5s.8-1.7,1.9-1.7,1.9.7,1.9,1.7-.5,1.3-1.1,1.5c.6.2,1.4.8,1.4,1.9s-1,2-2.2,2ZM456.5,248.8c-.7.2-1.4.7-1.4,1.4s.7,1.3,1.4,1.3,1.4-.5,1.4-1.3-.8-1.3-1.5-1.4ZM456.5,245.9c-.6,0-1.1.4-1.1,1s.5,1,1.2,1.2c.7-.2,1.1-.6,1.1-1.2s-.5-1-1.1-1Z"/>
      <path class="st9" d="M461.9,252.2c-1.2,0-2.2-.9-2.2-2.4s1.3-3.7,3.1-4.7l.8.4c-1.3.7-2.3,1.6-2.8,2.9.3-.3.6-.5,1.2-.5,1.3,0,2.1.9,2.1,2.2s-.9,2.2-2.2,2.2ZM461.9,248.6c-.6,0-1.2.3-1.4,1,0,.1,0,.2,0,.3,0,.9.7,1.5,1.4,1.5s1.4-.6,1.4-1.4-.6-1.4-1.4-1.4Z"/>
      <path class="st9" d="M469.6,252.2c-1.2,0-2.2-.7-2.2-2s.8-1.6,1.4-1.8c-.6-.2-1.1-.7-1.1-1.5s.8-1.7,1.9-1.7,1.9.7,1.9,1.7-.5,1.3-1.1,1.5c.6.2,1.4.8,1.4,1.9s-1,2-2.2,2ZM469.5,248.8c-.7.2-1.4.7-1.4,1.4s.7,1.3,1.4,1.3,1.4-.5,1.4-1.3-.8-1.3-1.5-1.4ZM469.6,245.9c-.6,0-1.1.4-1.1,1s.5,1,1.2,1.2c.7-.2,1.1-.6,1.1-1.2s-.5-1-1.1-1Z"/>
      <path class="st9" d="M474.9,252.2c-1.2,0-2.2-.9-2.2-2.4s1.3-3.7,3.1-4.7l.8.4c-1.3.7-2.3,1.6-2.8,2.9.3-.3.6-.5,1.2-.5,1.3,0,2.1.9,2.1,2.2s-.9,2.2-2.2,2.2ZM474.9,248.6c-.6,0-1.2.3-1.4,1,0,.1,0,.2,0,.3,0,.9.7,1.5,1.4,1.5s1.4-.6,1.4-1.4-.6-1.4-1.4-1.4Z"/>
    </g>
    <g>
      <path class="st9" d="M445.5,240.4l-2.2-3h-.9v3h-.9v-6.7h1.9c1,0,2,.6,2,1.9s-.5,1.5-1.3,1.7l2.3,3.2h-1.1ZM443.3,234.4h-.9v2.2h1c.7,0,1.3-.4,1.3-1.1s-.6-1.1-1.3-1.1Z"/>
      <path class="st9" d="M450.1,240.5c-1.8,0-3.7-1.3-3.7-3.5s1.9-3.5,3.6-3.5,1.6.2,2.1.5l-.2.8c-.5-.3-1.2-.5-1.9-.5-1.4,0-2.8,1-2.8,2.7s1.4,2.7,2.8,2.7,1.2-.2,1.6-.4v-1.6h-1.7v-.7h2.5v2.7c-.6.5-1.4.7-2.5.7Z"/>
      <path class="st9" d="M456,240.4h-2.1v-6.7h1.8c.9,0,1.9.6,1.9,1.7s-.3,1-.7,1.2c.7.2,1.3.9,1.3,1.8,0,1.3-1.1,2-2.2,2ZM455.5,234.4h-.8v2h.8c.6,0,1.1-.3,1.1-1s-.5-1-1.1-1ZM455.8,237.1h-1.1v2.6h1.1c.8,0,1.5-.4,1.5-1.3s-.7-1.3-1.5-1.3Z"/>
      <path class="st9" d="M459.6,236.7c-.2,0-.6-.4-.6-.6s.4-.6.6-.6.6.4.6.6-.4.6-.6.6ZM459.6,240.5c-.2,0-.6-.4-.6-.6s.4-.6.6-.6.6.4.6.6-.4.6-.6.6Z"/>
    </g>
  </g>
</svg>